# 3ds Max Wavefront OBJ Exporter v0.97b - (c)2007 guruware
# File Created: 04.07.2017 20:55:43

mtllib the footwea stand.mtl

#
# object the_footwea__stand
#

v  434.0001 0.0000 -175.0000
v  434.0001 0.0000 175.0000
v  -434.0001 0.0000 175.0000
v  -434.0001 0.0000 -175.0000
v  434.0001 320.0000 175.0000
v  434.0001 320.0000 -175.0000
v  -434.0001 320.0000 -175.0000
v  -434.0001 320.0000 175.0000
v  450.0000 168.2424 -175.0000
v  450.0000 168.2424 175.0000
v  450.0000 151.7576 175.0000
v  450.0000 151.7576 -175.0000
v  -450.0000 168.2424 175.0000
v  -450.0000 168.2424 -175.0000
v  -450.0000 151.7576 -175.0000
v  -450.0000 151.7576 175.0000
v  -434.0001 304.0000 175.0000
v  434.0001 304.0000 175.0000
v  434.0001 16.0000 175.0000
v  -434.0001 16.0000 175.0000
v  450.0000 320.0000 -175.0000
v  450.0000 320.0000 175.0000
v  450.0000 304.0000 175.0000
v  450.0000 304.0000 -175.0000
v  450.0000 0.0000 175.0000
v  450.0000 0.0000 -175.0000
v  450.0000 16.0000 -175.0000
v  450.0000 16.0000 175.0000
v  434.0001 304.0000 -175.0000
v  -434.0001 304.0000 -175.0000
v  -434.0001 16.0000 -175.0000
v  434.0001 16.0000 -175.0000
v  -450.0000 320.0000 175.0000
v  -450.0000 320.0000 -175.0000
v  -450.0000 304.0000 -175.0000
v  -450.0000 304.0000 175.0000
v  -450.0000 0.0000 -175.0000
v  -450.0000 0.0000 175.0000
v  -450.0000 16.0000 175.0000
v  -450.0000 16.0000 -175.0000
v  -434.0001 151.7576 175.0000
v  -434.0001 168.2424 175.0000
v  434.0001 168.2424 175.0000
v  434.0001 151.7576 175.0000
v  434.0001 151.7576 -175.0000
v  434.0001 168.2424 -175.0000
v  -434.0001 168.2424 -175.0000
v  -434.0001 151.7576 -175.0000
v  -434.0001 304.0000 -167.0000
v  434.0001 304.0000 -167.0000
v  434.0001 16.0000 -167.0000
v  -434.0001 16.0000 -167.0000
v  434.0001 151.7576 -167.0000
v  -434.0001 151.7576 -167.0000
v  -434.0001 168.2424 -167.0000
v  434.0001 168.2424 -167.0000
# 56 vertices

vn 0.0000 -1.0000 -0.0000
vn 0.0000 1.0000 -0.0000
vn 1.0000 0.0000 -0.0000
vn -1.0000 0.0000 -0.0000
vn 0.0000 0.0000 1.0000
vn 0.0000 0.0000 -1.0000
# 6 vertex normals

vt 0.6897 0.6996 0.0000
vt 0.6897 0.8219 0.0000
vt 0.3864 0.8219 0.0000
vt 0.3864 0.6996 0.0000
vt 0.3308 0.7174 0.0000
vt 0.3308 0.8397 0.0000
vt 0.0275 0.8397 0.0000
vt 0.0275 0.7174 0.0000
vt 0.1174 0.2923 0.0000
vt 0.1174 0.1700 0.0000
vt 0.1232 0.1700 0.0000
vt 0.1232 0.2923 0.0000
vt 0.1174 0.1552 0.0000
vt 0.1174 0.0329 0.0000
vt 0.1232 0.0329 0.0000
vt 0.1232 0.1552 0.0000
vt 0.3485 0.2100 0.0000
vt 0.3485 0.2045 0.0000
vt 0.6518 0.2045 0.0000
vt 0.6518 0.2100 0.0000
vt 0.6518 0.0982 0.0000
vt 0.6518 0.1038 0.0000
vt 0.3485 0.1038 0.0000
vt 0.3485 0.0982 0.0000
vt 0.0644 0.2923 0.0000
vt 0.0644 0.1700 0.0000
vt 0.0700 0.1700 0.0000
vt 0.0700 0.2923 0.0000
vt 0.1762 0.1700 0.0000
vt 0.1762 0.2923 0.0000
vt 0.1706 0.2923 0.0000
vt 0.1706 0.1700 0.0000
vt 0.3864 0.9781 0.0000
vt 0.3864 0.9725 0.0000
vt 0.6897 0.9725 0.0000
vt 0.6897 0.9781 0.0000
vt 0.6897 0.8663 0.0000
vt 0.6897 0.8719 0.0000
vt 0.3864 0.8719 0.0000
vt 0.3864 0.8663 0.0000
vt 0.0644 0.1552 0.0000
vt 0.0644 0.0329 0.0000
vt 0.0700 0.0329 0.0000
vt 0.0700 0.1552 0.0000
vt 0.1762 0.0329 0.0000
vt 0.1762 0.1552 0.0000
vt 0.1706 0.1552 0.0000
vt 0.1706 0.0329 0.0000
vt 0.6953 0.6996 0.0000
vt 0.6953 0.8219 0.0000
vt 0.3808 0.8219 0.0000
vt 0.3808 0.6996 0.0000
vt 0.3364 0.7174 0.0000
vt 0.3364 0.8397 0.0000
vt 0.0219 0.8397 0.0000
vt 0.0219 0.7174 0.0000
vt 0.3429 0.1513 0.0000
vt 0.3485 0.1513 0.0000
vt 0.3485 0.1570 0.0000
vt 0.3429 0.1570 0.0000
vt 0.6574 0.1570 0.0000
vt 0.6518 0.1570 0.0000
vt 0.6518 0.1513 0.0000
vt 0.6574 0.1513 0.0000
vt 0.3808 0.9193 0.0000
vt 0.3864 0.9193 0.0000
vt 0.3864 0.9251 0.0000
vt 0.3808 0.9251 0.0000
vt 0.6953 0.9251 0.0000
vt 0.6897 0.9251 0.0000
vt 0.6897 0.9193 0.0000
vt 0.6953 0.9193 0.0000
vt 0.3429 0.2100 0.0000
vt 0.3429 0.2045 0.0000
vt 0.6574 0.2045 0.0000
vt 0.6574 0.2100 0.0000
vt 0.6574 0.0982 0.0000
vt 0.6574 0.1038 0.0000
vt 0.3429 0.1038 0.0000
vt 0.3429 0.0982 0.0000
vt 0.3808 0.9781 0.0000
vt 0.3808 0.9725 0.0000
vt 0.6953 0.9725 0.0000
vt 0.6953 0.9781 0.0000
vt 0.6953 0.8663 0.0000
vt 0.6953 0.8719 0.0000
vt 0.3808 0.8719 0.0000
vt 0.3808 0.8663 0.0000
vt 0.6574 0.5068 0.0000
vt 0.3541 0.5068 0.0000
vt 0.3541 0.3873 0.0000
vt 0.6574 0.3873 0.0000
vt 0.0219 0.5357 0.0000
vt 0.3252 0.5357 0.0000
vt 0.3252 0.6552 0.0000
vt 0.0219 0.6552 0.0000
vt 0.0219 0.3110 0.0000
vt 0.3252 0.3110 0.0000
vt 0.3252 0.3584 0.0000
vt 0.0219 0.3584 0.0000
vt 0.3252 0.5068 0.0000
vt 0.0219 0.5068 0.0000
vt 0.0219 0.4594 0.0000
vt 0.3252 0.4594 0.0000
vt 0.1945 0.0863 0.0000
vt 0.3140 0.0863 0.0000
vt 0.3140 0.1337 0.0000
vt 0.1945 0.1337 0.0000
vt 0.3140 0.2100 0.0000
vt 0.1945 0.2100 0.0000
vt 0.1945 0.1626 0.0000
vt 0.3140 0.1626 0.0000
vt 0.6574 0.0694 0.0000
vt 0.5379 0.0694 0.0000
vt 0.5379 0.0219 0.0000
vt 0.6574 0.0219 0.0000
vt 0.3895 0.0219 0.0000
vt 0.5090 0.0219 0.0000
vt 0.5090 0.0694 0.0000
vt 0.3895 0.0694 0.0000
vt 0.3541 0.3584 0.0000
vt 0.3541 0.2389 0.0000
vt 0.6574 0.2389 0.0000
vt 0.6574 0.3584 0.0000
vt 0.3541 0.6552 0.0000
vt 0.3541 0.5357 0.0000
vt 0.6574 0.5357 0.0000
vt 0.6574 0.6552 0.0000
vt 0.3364 0.7053 0.0000
vt 0.0331 0.7053 0.0000
vt 0.0331 0.6996 0.0000
vt 0.3364 0.6996 0.0000
# 132 texture coords

g the_footwea__stand
usemtl the_footwea__stand
s 2
f 1/1/1 2/2/1 3/3/1 4/4/1 
s 4
f 5/5/2 6/6/2 7/7/2 8/8/2 
s 16
f 9/9/3 10/10/3 11/11/3 12/12/3 
s 64
f 13/13/4 14/14/4 15/15/4 16/16/4 
s 8
f 8/17/5 17/18/5 18/19/5 5/20/5 
f 2/21/5 19/22/5 20/23/5 3/24/5 
s 16
f 21/25/3 22/26/3 23/27/3 24/28/3 
f 25/29/3 26/30/3 27/31/3 28/32/3 
s 32
f 6/33/6 29/34/6 30/35/6 7/36/6 
f 4/37/6 31/38/6 32/39/6 1/40/6 
s 64
f 33/41/4 34/42/4 35/43/4 36/44/4 
f 37/45/4 38/46/4 39/47/4 40/48/4 
s 2
f 26/49/1 25/50/1 2/2/1 1/1/1 
f 38/51/1 37/52/1 4/4/1 3/3/1 
s 4
f 22/53/2 21/54/2 6/6/2 5/5/2 
f 34/55/2 33/56/2 8/8/2 7/7/2 
s 8
f 16/57/5 41/58/5 42/59/5 13/60/5 
f 10/61/5 43/62/5 44/63/5 11/64/5 
s 32
f 12/65/6 45/66/6 46/67/6 9/68/6 
f 14/69/6 47/70/6 48/71/6 15/72/6 
s 8
f 33/73/5 36/74/5 17/18/5 8/17/5 
f 23/75/5 22/76/5 5/20/5 18/19/5 
f 25/77/5 28/78/5 19/22/5 2/21/5 
f 39/79/5 38/80/5 3/24/5 20/23/5 
s 32
f 21/81/6 24/82/6 29/34/6 6/33/6 
f 35/83/6 34/84/6 7/36/6 30/35/6 
f 37/85/6 40/86/6 31/38/6 4/37/6 
f 27/87/6 26/88/6 1/40/6 32/39/6 
s off
f 18/89/1 17/90/1 49/91/1 50/92/1 
f 20/93/2 19/94/2 51/95/2 52/96/2 
s 8
f 52/97/5 51/98/5 53/99/5 54/100/5 
f 50/101/5 49/102/5 55/103/5 56/104/5 
s 16
f 24/28/3 23/27/3 10/10/3 9/9/3 
f 28/32/3 27/31/3 12/12/3 11/11/3 
s 32
f 32/39/6 31/38/6 48/71/6 45/66/6 
f 30/35/6 29/34/6 46/67/6 47/70/6 
s 64
f 36/44/4 35/43/4 14/14/4 13/13/4 
f 40/48/4 39/47/4 16/16/4 15/15/4 
s 8
f 39/79/5 20/23/5 41/58/5 16/57/5 
f 17/18/5 36/74/5 13/60/5 42/59/5 
f 23/75/5 18/19/5 43/62/5 10/61/5 
f 19/22/5 28/78/5 11/64/5 44/63/5 
s 32
f 27/87/6 32/39/6 45/66/6 12/65/6 
f 29/34/6 24/82/6 9/68/6 46/67/6 
f 35/83/6 30/35/6 47/70/6 14/69/6 
f 31/38/6 40/86/6 15/72/6 48/71/6 
s off
f 20/105/3 52/106/3 54/107/3 41/108/3 
f 49/109/3 17/110/3 42/111/3 55/112/3 
f 18/113/4 50/114/4 56/115/4 43/116/4 
f 51/117/4 19/118/4 44/119/4 53/120/4 
s 1
f 42/59/5 41/58/5 44/63/5 43/62/5 
s 2
f 41/121/1 54/122/1 53/123/1 44/124/1 
f 55/125/2 42/126/2 43/127/2 56/128/2 
s off
f 47/129/6 46/130/6 45/131/6 48/132/6 
# 54 polygons

